# xmcd CD database file
#
# Track frame offsets:
#	150
#	14868
#	31370
#	48828
#	65280
#	77216
#	90626
#	109301
#	124522
#	139138
#	156576
#
# Disc length: 2325 seconds
#
# Revision: 1
# Processed by: cddbd v1.5.2PL0 Copyright (c) Steve Scherf et al.
# Submitted via: CDex 1.70beta2
#
DISCID=9509130b
DTITLE=Crooks and Straights - So Little Left To Say
DYEAR=2005
DGENRE=Country
TTITLE0=I Whish I Knew
TTITLE1=Singing The Blues
TTITLE2=Hue Of Dying Ember
TTITLE3=All I Need Is One More For The Road
TTITLE4=One Thin Dime
TTITLE5=Nobody Gets Off In This Town
TTITLE6=Movin' On
TTITLE7=Angel, Angelina
TTITLE8=In The Jailhouse Now
TTITLE9=I Ain't Never Seen No One Like You
TTITLE10=Next Thing Smokin'
EXTD=YEAR: 2005
EXTT0=
EXTT1=
EXTT2=
EXTT3=
EXTT4=
EXTT5=
EXTT6=
EXTT7=
EXTT8=
EXTT9=
EXTT10=
PLAYORDER=
